<?xml version="1.0" encoding="UTF-8" standalone="no"?>
<!-- Generator: Adobe Illustrator 26.5.0, SVG Export Plug-In . SVG Version: 6.00 Build 0)  -->

<svg
   version="1.1"
   id="Layer_2_00000020397045202257080060000010412001782099348891_"
   x="0px"
   y="0px"
   viewBox="0 0 2521 2911"
   style="enable-background:new 0 0 2521 2911;"
   xml:space="preserve"
   sodipodi:docname="bertin.svg"
   inkscape:version="1.2.2 (b0a8486541, 2022-12-01, custom)"
   xmlns:inkscape="http://www.inkscape.org/namespaces/inkscape"
   xmlns:sodipodi="http://sodipodi.sourceforge.net/DTD/sodipodi-0.dtd"
   xmlns="http://www.w3.org/2000/svg"
   xmlns:svg="http://www.w3.org/2000/svg"><defs
   id="defs567"><pattern
     id="hatch"
     patternUnits="userSpaceOnUse"
     width="12.5"
     height="12.5"
     patternTransform="rotate(45)"><line
       x1="0"
       y1="12.5"
       x2="0"
       stroke="white"
       stroke-linejoin="butt"
       stroke-width="3.3333333333333335"
       stroke-opacity="0.25"
       id="line198" /></pattern><clipPath
     clipPathUnits="userSpaceOnUse"
     id="clipPath5158"><path
       d="m 464.01716,-514.53079 v 153.2701 l -132.7358,76.63504 -132.73579,-76.63504 v -153.2701 l 132.73579,-76.63504 z"
       stroke="none"
       fill="#c42727"
       id="path5160"
       style="fill:#edca3d;fill-opacity:1;stroke-width:0.999995" /></clipPath><clipPath
     clipPathUnits="userSpaceOnUse"
     id="clipPath5154"><path
       d="m 464.01716,-514.53079 v 153.2701 l -132.7358,76.63504 -132.73579,-76.63504 v -153.2701 l 132.73579,-76.63504 z"
       stroke="none"
       fill="#c42727"
       id="path5156"
       style="fill:#edca3d;fill-opacity:1;stroke-width:0.999995" /></clipPath></defs><sodipodi:namedview
   id="namedview565"
   pagecolor="#ffffff"
   bordercolor="#999999"
   borderopacity="1"
   inkscape:showpageshadow="0"
   inkscape:pageopacity="0"
   inkscape:pagecheckerboard="0"
   inkscape:deskcolor="#d1d1d1"
   showgrid="false"
   inkscape:zoom="0.028663209"
   inkscape:cx="9768.6203"
   inkscape:cy="-4552.8748"
   inkscape:window-width="1860"
   inkscape:window-height="1016"
   inkscape:window-x="895"
   inkscape:window-y="1107"
   inkscape:window-maximized="1"
   inkscape:current-layer="Layer_2_00000020397045202257080060000010412001782099348891_" />
<style
   type="text/css"
   id="style198">
	.st0{clip-path:url(#SVGID_00000152983436962796077360000013068710382691342502_);}
	.st1{clip-path:url(#SVGID_00000152983436962796077360000013068710382691342502_);fill:#333333;}
	.st2{clip-path:url(#SVGID_00000152983436962796077360000013068710382691342502_);fill:#494949;}
	.st3{clip-path:url(#SVGID_00000152983436962796077360000013068710382691342502_);fill:#0DF239;}
	.st4{clip-path:url(#SVGID_00000152983436962796077360000013068710382691342502_);fill:#0072C5;}
	.st5{clip-path:url(#SVGID_00000152983436962796077360000013068710382691342502_);fill:#00B2C5;}
	.st6{clip-path:url(#SVGID_00000152983436962796077360000013068710382691342502_);fill:#0D7964;}
	.st7{clip-path:url(#SVGID_00000152983436962796077360000013068710382691342502_);fill:#1C8974;}
	.st8{clip-path:url(#SVGID_00000152983436962796077360000013068710382691342502_);fill:#095231;}
	.st9{clip-path:url(#SVGID_00000152983436962796077360000013068710382691342502_);fill:#1F6847;}
	.st10{clip-path:url(#SVGID_00000152983436962796077360000013068710382691342502_);fill:#186140;}
	.st11{clip-path:url(#SVGID_00000152983436962796077360000013068710382691342502_);fill:#008E9E;}
	.st12{clip-path:url(#SVGID_00000152983436962796077360000013068710382691342502_);fill:#0A99A8;}
	.st13{clip-path:url(#SVGID_00000152983436962796077360000013068710382691342502_);fill:#029FA7;}
	.st14{clip-path:url(#SVGID_00000152983436962796077360000013068710382691342502_);fill:#00A9BB;}
	.st15{clip-path:url(#SVGID_00000152983436962796077360000013068710382691342502_);fill:#03ACBE;}
	.st16{clip-path:url(#SVGID_00000152983436962796077360000013068710382691342502_);fill:#01AFC0;}
	.st17{clip-path:url(#SVGID_00000152983436962796077360000013068710382691342502_);fill:#01B0C1;}
	.st18{clip-path:url(#SVGID_00000152983436962796077360000013068710382691342502_);fill:#004ECC;}
	.st19{clip-path:url(#SVGID_00000152983436962796077360000013068710382691342502_);fill:#0A59D6;}
	.st20{clip-path:url(#SVGID_00000152983436962796077360000013068710382691342502_);fill:#006BEC;}
	.st21{clip-path:url(#SVGID_00000152983436962796077360000013068710382691342502_);fill:#026DEE;}
	.st22{clip-path:url(#SVGID_00000152983436962796077360000013068710382691342502_);fill:#08462A;}
	.st23{clip-path:url(#SVGID_00000152983436962796077360000013068710382691342502_);fill:#1C5B3E;}
	.st24{clip-path:url(#SVGID_00000152983436962796077360000013068710382691342502_);fill:#0B673E;}
	.st25{clip-path:url(#SVGID_00000152983436962796077360000013068710382691342502_);fill:#C0FD00;}
	.st26{clip-path:url(#SVGID_00000152983436962796077360000013068710382691342502_);fill:#00A8C4;}
	.st27{clip-path:url(#SVGID_00000152983436962796077360000013068710382691342502_);fill:#1F7D7B;}
	.st28{clip-path:url(#SVGID_00000152983436962796077360000013068710382691342502_);fill:#268582;}
	.st29{clip-path:url(#SVGID_00000152983436962796077360000013068710382691342502_);fill:#46661D;}
	.st30{clip-path:url(#SVGID_00000152983436962796077360000013068710382691342502_);fill:#55752D;}
	.st31{clip-path:url(#SVGID_00000152983436962796077360000013068710382691342502_);fill:#05A551;}
	.st32{clip-path:url(#SVGID_00000152983436962796077360000013068710382691342502_);fill:#0AAA56;}
	.st33{clip-path:url(#SVGID_00000152983436962796077360000013068710382691342502_);fill:#0CAF54;}
	.st34{clip-path:url(#SVGID_00000152983436962796077360000013068710382691342502_);fill:#0EB156;}
	.st35{clip-path:url(#SVGID_00000152983436962796077360000013068710382691342502_);fill:#059248;}
	.st36{clip-path:url(#SVGID_00000152983436962796077360000013068710382691342502_);fill:#0F9D52;}
	.st37{clip-path:url(#SVGID_00000152983436962796077360000013068710382691342502_);fill:#5A6B1B;}
	.st38{clip-path:url(#SVGID_00000152983436962796077360000013068710382691342502_);fill:#697B2A;}
	.st39{clip-path:url(#SVGID_00000152983436962796077360000013068710382691342502_);fill:#404D13;}
	.st40{clip-path:url(#SVGID_00000152983436962796077360000013068710382691342502_);fill:#5A662C;}
	.st41{clip-path:url(#SVGID_00000152983436962796077360000013068710382691342502_);fill:#6D8221;}
	.st42{clip-path:url(#SVGID_00000152983436962796077360000013068710382691342502_);fill:#758A28;}
	.st43{clip-path:url(#SVGID_00000152983436962796077360000013068710382691342502_);fill:#062E11;}
	.st44{clip-path:url(#SVGID_00000152983436962796077360000013068710382691342502_);fill:#244C2F;}
	.st45{clip-path:url(#SVGID_00000152983436962796077360000013068710382691342502_);fill:#647A0F;}
	.st46{clip-path:url(#SVGID_00000152983436962796077360000013068710382691342502_);fill:#788F23;}
	.st47{clip-path:url(#SVGID_00000152983436962796077360000013068710382691342502_);fill:#272E0B;}
	.st48{clip-path:url(#SVGID_00000152983436962796077360000013068710382691342502_);fill:#65791E;}
	.st49{clip-path:url(#SVGID_00000152983436962796077360000013068710382691342502_);fill:#4A522F;}
	.st50{clip-path:url(#SVGID_00000152983436962796077360000013068710382691342502_);fill:#056D05;}
	.st51{clip-path:url(#SVGID_00000152983436962796077360000013068710382691342502_);fill:#198119;}
	.st52{clip-path:url(#SVGID_00000152983436962796077360000013068710382691342502_);fill:#079807;}
	.st53{clip-path:url(#SVGID_00000152983436962796077360000013068710382691342502_);fill:#083F17;}
	.st54{clip-path:url(#SVGID_00000152983436962796077360000013068710382691342502_);fill:#1F562E;}
	.st55{clip-path:url(#SVGID_00000152983436962796077360000013068710382691342502_);fill:#709B1C;}
	.st56{clip-path:url(#SVGID_00000152983436962796077360000013068710382691342502_);fill:#7FAA2B;}
	.st57{clip-path:url(#SVGID_00000152983436962796077360000013068710382691342502_);fill:#708429;}
	.st58{clip-path:url(#SVGID_00000152983436962796077360000013068710382691342502_);fill:#758B23;}
	.st59{clip-path:url(#SVGID_00000152983436962796077360000013068710382691342502_);fill:#799027;}
	.st60{clip-path:url(#SVGID_00000152983436962796077360000013068710382691342502_);fill:#788F24;}
	.st61{clip-path:url(#SVGID_00000152983436962796077360000013068710382691342502_);fill:#7B9327;}
	.st62{clip-path:url(#SVGID_00000152983436962796077360000013068710382691342502_);fill:#ADE400;}
	.st63{clip-path:url(#SVGID_00000152983436962796077360000013068710382691342502_);fill:#B2E905;}
	.st64{clip-path:url(#SVGID_00000152983436962796077360000013068710382691342502_);fill:#06B75A;}
	.st65{clip-path:url(#SVGID_00000152983436962796077360000013068710382691342502_);fill:#19531C;}
	.st66{clip-path:url(#SVGID_00000152983436962796077360000013068710382691342502_);fill:#29642C;}
	.st67{clip-path:url(#SVGID_00000152983436962796077360000013068710382691342502_);fill:#4BC72C;}
	.st68{clip-path:url(#SVGID_00000152983436962796077360000013068710382691342502_);fill:#51CF2E;}
	.st69{clip-path:url(#SVGID_00000152983436962796077360000013068710382691342502_);fill:#4BD935;}
	.st70{clip-path:url(#SVGID_00000152983436962796077360000013068710382691342502_);fill:#54D22F;}
	.st71{clip-path:url(#SVGID_00000152983436962796077360000013068710382691342502_);fill:#D4EF0F;}
	.st72{clip-path:url(#SVGID_00000152983436962796077360000013068710382691342502_);fill:#1BE0E0;}
</style>
<g
   id="g1932"
   transform="translate(-4969.6061,1659.4647)"><g
     id="g1896"><g
       id="g733"
       transform="matrix(2.9110014,0,0,2.9110014,4969.6061,-1659.4661)"><path
         d="M 866.025,250 V 750 L 433.013,1000 0,750 V 250 L 433.013,0 Z"
         stroke="none"
         fill="#c42727"
         id="path203" /><path
         d="M 866.025,250 V 750 L 433.013,1000 0,750 V 250 L 433.013,0 Z"
         stroke="none"
         fill="#e63e32"
         transform="matrix(0.95,0,0,0.95,21.650635,25)"
         id="path205" /><path
         d="M 866.025,750 C 808.29,850 548.483,1000 433.013,1000 317.543,1000 57.735,850 0,750 -57.735,650 -57.735,350 0,250 57.735,150 317.543,0 433.013,0 c 115.47,0 375.277,150 433.012,250 57.735,100 57.735,400 0,500"
         stroke="#ffffff"
         fill="none"
         stroke-width="10"
         transform="matrix(0.65,0,0,0.65,151.55445,175)"
         id="path207" /><path
         d="M 866.025,750 C 829.941,812.5 505.181,1000 433.013,1000 360.844,1000 36.084,812.5 0,750 -36.084,687.5 -36.084,312.5 0,250 36.084,187.5 360.844,0 433.013,0 c 72.168,0 396.928,187.5 433.012,250 36.085,62.5 36.085,437.5 0,500"
         stroke="#ffffff"
         fill="none"
         stroke-width="2.5"
         stroke-dasharray="12.5"
         transform="matrix(0.82,0,0,0.82,77.942286,90)"
         id="path209" /><text
         x="433.0127"
         y="800"
         text-anchor="middle"
         dominant-baseline="middle"
         font-size="111.111px"
         textLength="350"
         font-weight="bold"
         fill="#e63e32"
         stroke="#e63e32"
         strokeLinejoin="round"
         stroke-width="55.5556"
         style="font-family:Roboto"
         id="text211"
         lengthAdjust="spacing">bertin</text><path
         d="M 866.025,250 V 750 L 433.013,1000 0,750 V 250 L 433.013,0 Z"
         stroke="none"
         fill="url(#hatch)"
         id="path215"
         transform="matrix(0.95,0,0,0.95,21.650635,25)" /><g
         id="g219"><path
           fill="#ffffff"
           stroke="#e63e32"
           d="m 93.889454,550.42018 c -3.920895,-5.12126 -7.84179,-10.39845 -11.762685,-15.84266 -3.920895,-5.44421 -7.84179,-11.05545 -11.762685,-16.84621 -3.920895,-5.79075 -7.84179,-11.76103 -9.802238,-14.74617 C 58.601399,500 58.601399,500 58.601399,500 c 0,0 0,0 0,0 0,0 0,0 0,0 0,0 0,0 0,0 0,0 0,0 0,0 0,0 0,0 0,0 0,0 0,0 0,0 0,0 0,0 0,0 0,0 0,0 0,0 0,0 0,0 0,0 0,0 0,0 0,0 0,0 0,0 0,0 0,0 0,0 0,0 0,0 0,0 0,0 0,0 0,0 0,0 0,0 0,0 0,0 0,0 0,0 0,0 0,0 0,0 0,0 0,0 0,0 0,0 0,0 0,0 0,0 0,0 0,0 0,0 0,0 0,0 0,0 0,0 0,0 0,0 0,0 0,0 0,0 0,0 0,0 0,0 0,0 0,0 0,0 0,0 0,0 0,0 0,0 0,0 0,0 0,0 0,0 0,0 0,0 0,0 0,0 0,0 0,0 0,0 0,0 0,0 0,0 0,0 0,0 0,0 0,0 0,0 0,0 0,0 0,0 0,0 0,0 0,0 0,0 0,0 0,0 0,0 0,0 0,0 0,0 0,0 0,0 0,0 0,0 0,0 0,0 0,0 0,0 0.279658,-0.43732 0.279659,-0.43733 0.838975,-1.31198 3.064323,-4.68642 2.225347,-3.37444 6.116726,-9.24867 10.008104,-14.94783 3.891379,-5.69915 7.782757,-11.22323 11.674135,-16.58426 3.891379,-5.36102 7.782757,-10.559 11.674136,-15.60462 3.891378,-5.04562 7.782755,-9.93888 11.674135,-14.68932 3.89138,-4.75043 7.78276,-9.35804 11.67414,-13.83135 3.89137,-4.4733 7.78275,-8.81231 11.67413,-13.02464 3.89138,-4.21233 7.78276,-8.298 11.67414,-12.26386 3.89137,-3.96585 7.78275,-7.8119 11.67413,-11.54431 3.89138,-3.73241 7.78276,-7.35118 11.67414,-10.86188 3.89137,-3.5107 7.78275,-6.91332 11.67413,-10.21288 3.89138,-3.29957 7.78276,-6.49608 11.67414,-9.59407 3.89138,-3.098 7.78275,-6.09747 11.67413,-9.00253 3.89138,-2.90507 7.78276,-5.71572 11.67414,-8.43567 3.89138,-2.71995 7.78275,-5.3492 11.67413,-7.89111 3.89138,-2.54192 7.78276,-4.99649 11.67414,-7.36678 3.89138,-2.37028 7.78275,-4.65627 11.67413,-6.86072 3.89138,-2.20445 7.78276,-4.32736 11.67414,-6.37122 3.89138,-2.04386 7.78275,-4.00866 11.67413,-5.89666 3.89138,-1.888 7.78276,-3.69919 11.67414,-5.43559 3.89138,-1.73641 7.78276,-3.39803 11.67413,-4.98667 3.89138,-1.58865 7.78276,-3.10433 11.67414,-4.54866 3.89138,-1.44432 7.78276,-2.8173 13.61982,-4.66833 5.83707,-1.85102 13.61983,-4.18009 21.40258,-6.23895 7.78276,-2.05885 15.56552,-3.8475 23.34828,-5.3731 7.78275,-1.5256 15.56551,-2.78815 23.34827,-3.79262 7.78275,-1.00446 15.56551,-1.75084 23.34827,-2.24203 7.78275,-0.49119 15.56551,-0.72718 23.34827,-0.70889 7.78275,0.0183 15.56551,0.29086 23.34827,0.81877 7.78275,0.5279 15.56551,1.31114 23.34827,2.35276 7.78275,1.04161 15.56551,2.3416 23.34827,3.90507 7.78276,1.56347 15.56551,3.39043 23.34827,5.4882 7.78276,2.09777 15.56551,4.46636 21.40258,6.34731 5.83707,1.88095 9.72845,3.27425 13.61982,4.73913 3.89138,1.46488 7.78276,3.00132 11.67414,4.61099 3.89138,1.60967 7.78276,3.29255 11.67414,5.0505 3.89137,1.75795 7.78275,3.59097 11.67413,5.50109 3.89138,1.91013 7.78276,3.89738 11.67414,5.96401 3.89137,2.06664 7.78275,4.21268 11.67413,6.44063 3.89138,2.22795 7.78276,4.53782 11.67414,6.9324 3.89137,2.39458 7.78275,4.87388 11.67413,7.44097 3.89138,2.5671 7.78276,5.22199 11.67414,7.96809 3.89138,2.74611 7.78275,5.58342 11.67413,8.51571 3.89138,2.9323 7.78276,5.95957 11.67414,9.08598 3.89138,3.12641 7.78275,6.35197 11.67413,9.68127 3.89138,3.3293 7.78276,6.76234 11.67414,10.30422 3.89138,3.54189 7.78275,7.19261 11.67413,10.95782 3.89138,3.76522 7.78276,7.64491 11.67414,11.64536 3.89138,4.00045 7.78275,8.12164 11.67413,12.37056 3.89138,4.24891 7.78276,8.62553 11.67414,13.13763 3.89138,4.5121 7.78276,9.15967 11.67413,13.95137 3.89138,4.7917 7.78276,9.72753 11.67414,14.81718 3.89138,5.08965 7.78276,10.33312 11.67413,15.74128 3.89138,5.40816 7.78276,10.98102 11.67414,16.7308 3.89138,5.74978 7.78276,11.67648 9.72845,14.63984 C 807.424,500 807.424,500 807.424,500 c 0,0 0,0 0,0 0,0 0,0 0,0 0,0 0,0 0,0 0,0 0,0 0,0 0,0 0,0 0,0 0,0 0,0 0,0 0,0 0,0 0,0 0,0 0,0 0,0 0,0 0,0 0,0 0,0 0,0 0,0 0,0 0,0 0,0 0,0 0,0 0,0 0,0 0,0 0,0 0,0 0,0 0,0 0,0 0,0 0,0 0,0 0,0 0,0 0,0 0,0 0,0 0,0 0,0 0,0 0,0 0,0 0,0 0,0 0,0 0,0 0,0 0,0 0,0 0,0 0,0 0,0 0,0 0,0 0,0 0,0 0,0 0,0 0,0 0,0 0,0 0,0 0,0 0,0 0,0 0,0 0,0 0,0 0,0 0,0 0,0 0,0 0,0 0,0 0,0 0,0 0,0 0,0 0,0 0,0 0,0 0,0 0,0 0,0 0,0 0,0 0,0 0,0 0,0 0,0 0,0 0,0 0,0 0,0 0,0 0,0 0,0 0,0 0,0 0,0 0,0 0,0 0,0 0,0 0,0 0,0 0,0 0,0 0,0 0,0 0,0 -0.2983,0.46634 -0.2983,0.46634 -0.89491,1.39903 -3.01608,4.62076 -2.12117,3.22173 -5.76691,8.73252 -9.41265,14.08904 -3.64574,5.35652 -7.29148,10.55879 -10.93722,15.61678 -3.64574,5.05799 -7.29148,9.97172 -10.93722,14.75011 -3.64574,4.7784 -7.29148,9.42146 -10.93722,13.93723 -3.64574,4.51576 -7.29148,8.90423 -10.93722,13.17262 -3.64574,4.26839 -7.29148,8.4167 -10.93722,12.45145 -3.64574,4.03474 -7.29148,7.95593 -10.93722,11.76943 -3.64574,3.81351 -7.29148,7.51934 -10.93722,11.12281 -3.64574,3.60348 -7.29148,7.1046 -10.93722,10.50821 -3.64574,3.4036 -7.29148,6.70968 -10.93722,9.92262 -3.64574,3.21295 -7.29148,6.33276 -10.93722,9.36341 -3.64574,3.03066 -7.29148,5.97216 -12.76009,10.13114 -5.46861,4.15898 -12.76009,9.53543 -20.05157,14.59474 -7.29148,5.05931 -14.58296,9.80147 -21.87444,14.24747 -7.29147,4.44599 -14.58295,8.59582 -21.87443,12.46687 -7.29148,3.87104 -14.58296,7.4633 -21.87444,10.79111 -7.29148,3.3278 -14.58296,6.39117 -21.87444,9.20181 -7.29148,2.81064 -14.58296,5.36856 -21.87444,7.6832 -7.29148,2.31465 -14.58296,4.38603 -21.87444,6.22156 -7.29148,1.83554 -14.58296,3.43523 -21.87444,4.80468 -7.29148,1.36945 -14.58296,2.50867 -21.87444,3.42156 -7.29148,0.9129 -14.58296,1.59948 -21.87444,2.06207 -7.29148,0.4626 -14.58296,0.70121 -21.87444,0.71664 -7.29148,0.0154 -14.58296,-0.1923 -21.87444,-0.62392 -7.29147,-0.43162 -14.58295,-1.08712 -21.87443,-1.96872 -7.29148,-0.88161 -14.58296,-1.98932 -21.87444,-3.32694 -7.29148,-1.33763 -14.58296,-2.90517 -21.87444,-4.70811 -7.29148,-1.80294 -14.58296,-3.84128 -21.87444,-6.12231 -7.29148,-2.28103 -14.58296,-4.80476 -21.87444,-7.58049 -7.29148,-2.77572 -14.58296,-5.80345 -21.87444,-9.09473 -7.29148,-3.29128 -14.58296,-6.84612 -21.87444,-10.67866 -7.29148,-3.83255 -14.58296,-7.94279 -21.87444,-12.34789 -7.29148,-4.4051 -14.58296,-9.10506 -21.87444,-14.12059 -7.29148,-5.01552 -14.58296,-10.34661 -20.05157,-14.47088 -5.46861,-4.12426 -9.11435,-7.0417 -12.76009,-10.04777 -3.64573,-3.00607 -7.29147,-6.10077 -10.93721,-9.28803 -3.64574,-3.18726 -7.29148,-6.46709 -10.93722,-9.84381 -3.64574,-3.37671 -7.29148,-6.85032 -10.93722,-10.42558 -3.64574,-3.57526 -7.29148,-7.25218 -10.93722,-11.036 -3.64574,-3.78383 -7.29148,-7.67457 -10.93722,-11.67802 -3.64574,-4.00345 -7.29148,-8.11962 -10.93722,-12.35492 -3.64574,-4.2353 -7.29148,-8.58974 -11.0748,-13.24963 -3.78332,-4.65988 -7.704212,-9.62522 -11.625106,-14.74648"
           id="path217" /></g><g
         id="g226"><path
           d="M 100.203,558.683 V 554.216 541.495 522.457 500 477.543 458.505 445.784 441.317 m 83.202,202.794 V 633.141 601.902 555.149 500 444.851 398.098 366.859 355.889 m 83.203,342.425 V 683.218 640.229 575.891 500 424.109 359.771 316.782 301.686 M 349.81,728.597 V 711.196 661.643 587.48 500 412.52 338.357 288.804 271.403 m 83.203,466.955 V 720.214 668.544 591.216 500 408.784 331.456 279.786 261.642 m 83.202,466.955 V 711.196 661.643 587.48 500 412.52 338.357 288.804 271.403 m 83.203,426.911 V 683.218 640.229 575.891 500 424.109 359.771 316.782 301.686 M 682.62,644.111 V 633.141 601.902 555.149 500 444.851 398.098 366.859 355.889 m 83.203,202.794 V 554.216 541.495 522.457 500 477.543 458.505 445.784 441.317 M 58.601,500 l 10.401,15.652 10.4,14.815 10.4,14.031 10.401,13.294 10.4,12.599 10.4,11.942 10.401,11.319 10.4,10.729 10.4,10.167 10.401,9.63 10.4,9.117 10.4,8.627 10.4,8.155 10.401,7.701 10.4,7.265 10.4,6.843 10.401,6.436 10.4,6.04 10.4,5.656 10.401,5.283 10.4,4.92 10.4,4.564 10.401,4.219 10.4,3.878 10.4,3.546 10.401,3.219 10.4,2.897 10.4,2.58 10.401,2.267 10.4,1.958 10.4,1.651 10.4,1.348 10.401,1.046 10.4,0.746 10.4,0.447 10.401,0.149 10.4,-0.149 10.4,-0.447 10.401,-0.746 10.4,-1.046 10.4,-1.348 10.401,-1.651 10.4,-1.958 10.4,-2.267 10.401,-2.58 10.4,-2.897 10.4,-3.219 10.4,-3.546 10.401,-3.878 10.4,-4.219 10.4,-4.564 10.401,-4.92 10.4,-5.283 10.4,-5.656 10.401,-6.04 10.4,-6.436 10.4,-6.843 10.401,-7.265 10.4,-7.701 10.4,-8.155 10.401,-8.627 10.4,-9.117 10.4,-9.63 10.4,-10.167 10.401,-10.729 10.4,-11.319 10.4,-11.942 10.401,-12.599 10.4,-13.294 10.4,-14.031 10.401,-14.815 10.4,-15.652 m -748.823,0 10.401,13.764 10.4,13.028 10.4,12.339 10.401,11.69 10.4,11.079 10.4,10.502 10.401,9.954 10.4,9.435 10.4,8.94 10.401,8.469 10.4,8.018 10.4,7.586 10.4,7.171 10.401,6.773 10.4,6.389 10.4,6.017 10.401,5.659 10.4,5.312 10.4,4.974 10.401,4.646 10.4,4.326 10.4,4.014 10.401,3.71 10.4,3.411 10.4,3.118 10.401,2.83 10.4,2.548 10.4,2.269 10.401,1.993 10.4,1.722 10.4,1.452 10.4,1.185 10.401,0.92 10.4,0.657 10.4,0.393 10.401,0.131 10.4,-0.131 10.4,-0.393 10.401,-0.657 10.4,-0.92 10.4,-1.185 10.401,-1.452 10.4,-1.722 10.4,-1.993 10.401,-2.269 10.4,-2.548 10.4,-2.83 10.4,-3.118 10.401,-3.411 10.4,-3.71 10.4,-4.014 10.401,-4.326 10.4,-4.646 10.4,-4.974 10.401,-5.312 10.4,-5.659 10.4,-6.017 10.401,-6.389 10.4,-6.773 10.4,-7.171 10.401,-7.586 10.4,-8.018 10.4,-8.469 10.4,-8.94 10.401,-9.435 10.4,-9.954 10.4,-10.502 10.401,-11.079 10.4,-11.69 10.4,-12.339 10.401,-13.028 10.4,-13.764 m -748.823,0 10.401,10.216 10.4,9.67 10.4,9.158 10.401,8.677 10.4,8.223 10.4,7.795 10.401,7.388 10.4,7.003 10.4,6.636 10.401,6.285 10.4,5.951 10.4,5.631 10.4,5.323 10.401,5.026 10.4,4.742 10.4,4.467 10.401,4.2 10.4,3.942 10.4,3.692 10.401,3.449 10.4,3.211 10.4,2.979 10.401,2.753 10.4,2.532 10.4,2.314 10.401,2.101 10.4,1.891 10.4,1.684 10.401,1.48 10.4,1.278 10.4,1.078 10.4,0.879 10.401,0.683 10.4,0.487 10.4,0.292 10.401,0.097 10.4,-0.097 10.4,-0.292 10.401,-0.487 10.4,-0.683 10.4,-0.879 10.401,-1.078 10.4,-1.278 10.4,-1.48 10.401,-1.684 10.4,-1.891 10.4,-2.101 10.4,-2.314 10.401,-2.532 10.4,-2.753 10.4,-2.979 10.401,-3.211 10.4,-3.449 10.4,-3.692 10.401,-3.942 10.4,-4.2 10.4,-4.467 10.401,-4.742 10.4,-5.026 10.4,-5.323 10.401,-5.631 10.4,-5.951 10.4,-6.285 10.4,-6.636 10.401,-7.003 10.4,-7.388 10.4,-7.795 10.401,-8.223 10.4,-8.677 10.4,-9.158 10.401,-9.67 10.4,-10.216 m -748.823,0 10.401,5.436 10.4,5.145 10.4,4.873 10.401,4.617 10.4,4.375 10.4,4.148 10.401,3.931 10.4,3.726 10.4,3.531 10.401,3.344 10.4,3.167 10.4,2.996 10.4,2.832 10.401,2.675 10.4,2.523 10.4,2.377 10.401,2.234 10.4,2.098 10.4,1.965 10.401,1.834 10.4,1.709 10.4,1.585 10.401,1.465 10.4,1.347 10.4,1.232 10.401,1.118 10.4,1.006 10.4,0.896 10.401,0.787 10.4,0.68 10.4,0.574 10.4,0.468 10.401,0.363 10.4,0.259 10.4,0.155 10.401,0.052 10.4,-0.052 10.4,-0.155 10.401,-0.259 10.4,-0.363 10.4,-0.468 10.401,-0.574 10.4,-0.68 10.4,-0.787 10.401,-0.896 10.4,-1.006 10.4,-1.118 10.4,-1.232 10.401,-1.347 10.4,-1.465 10.4,-1.585 10.401,-1.709 10.4,-1.834 10.4,-1.965 10.401,-2.098 10.4,-2.234 10.4,-2.377 10.401,-2.523 10.4,-2.675 10.4,-2.832 10.401,-2.996 10.4,-3.167 10.4,-3.344 10.4,-3.531 10.401,-3.726 10.4,-3.931 10.4,-4.148 10.401,-4.375 10.4,-4.617 10.4,-4.873 10.401,-5.145 10.4,-5.436 m -748.823,0 h 10.401 10.4 10.4 10.401 10.4 10.4 10.401 10.4 10.4 10.401 10.4 10.4 10.4 10.401 10.4 10.4 10.401 10.4 10.4 10.401 10.4 10.4 10.401 10.4 10.4 10.401 10.4 10.4 10.401 10.4 10.4 10.4 10.401 10.4 10.4 10.401 10.4 10.4 10.401 10.4 10.4 10.401 10.4 10.4 10.401 10.4 10.4 10.4 10.401 10.4 10.4 10.401 10.4 10.4 10.401 10.4 10.4 10.401 10.4 10.4 10.401 10.4 10.4 10.4 10.401 10.4 10.4 10.401 10.4 10.4 10.401 10.4 m -748.823,0 10.401,-5.436 10.4,-5.145 10.4,-4.873 10.401,-4.617 10.4,-4.375 10.4,-4.148 10.401,-3.931 10.4,-3.726 10.4,-3.531 10.401,-3.344 10.4,-3.167 10.4,-2.996 10.4,-2.832 10.401,-2.675 10.4,-2.523 10.4,-2.377 10.401,-2.234 10.4,-2.098 10.4,-1.965 10.401,-1.834 10.4,-1.709 10.4,-1.585 10.401,-1.465 10.4,-1.347 10.4,-1.232 10.401,-1.118 10.4,-1.006 10.4,-0.896 10.401,-0.787 10.4,-0.68 10.4,-0.574 10.4,-0.468 10.401,-0.363 10.4,-0.259 10.4,-0.155 10.401,-0.052 10.4,0.052 10.4,0.155 10.401,0.259 10.4,0.363 10.4,0.468 10.401,0.574 10.4,0.68 10.4,0.787 10.401,0.896 10.4,1.006 10.4,1.118 10.4,1.232 10.401,1.347 10.4,1.465 10.4,1.585 10.401,1.709 10.4,1.834 10.4,1.965 10.401,2.098 10.4,2.234 10.4,2.377 10.401,2.523 10.4,2.675 10.4,2.832 10.401,2.996 10.4,3.167 10.4,3.344 10.4,3.531 10.401,3.726 10.4,3.931 10.4,4.148 10.401,4.375 10.4,4.617 10.4,4.873 10.401,5.145 10.4,5.436 m -748.823,0 10.401,-10.216 10.4,-9.67 10.4,-9.158 10.401,-8.677 10.4,-8.223 10.4,-7.795 10.401,-7.388 10.4,-7.003 10.4,-6.636 10.401,-6.285 10.4,-5.951 10.4,-5.631 10.4,-5.323 10.401,-5.026 10.4,-4.742 10.4,-4.467 10.401,-4.2 10.4,-3.942 10.4,-3.692 10.401,-3.449 10.4,-3.211 10.4,-2.979 10.401,-2.753 10.4,-2.532 10.4,-2.314 10.401,-2.101 10.4,-1.891 10.4,-1.684 10.401,-1.48 10.4,-1.278 10.4,-1.078 10.4,-0.879 10.401,-0.683 10.4,-0.487 10.4,-0.292 10.401,-0.097 10.4,0.097 10.4,0.292 10.401,0.487 10.4,0.683 10.4,0.879 10.401,1.078 10.4,1.278 10.4,1.48 10.401,1.684 10.4,1.891 10.4,2.101 10.4,2.314 10.401,2.532 10.4,2.753 10.4,2.979 10.401,3.211 10.4,3.449 10.4,3.692 10.401,3.942 10.4,4.2 10.4,4.467 10.401,4.742 10.4,5.026 10.4,5.323 10.401,5.631 10.4,5.951 10.4,6.285 10.4,6.636 10.401,7.003 10.4,7.388 10.4,7.795 10.401,8.223 10.4,8.677 10.4,9.158 10.401,9.67 10.4,10.216 m -748.823,0 10.401,-13.764 10.4,-13.028 10.4,-12.339 10.401,-11.69 10.4,-11.079 10.4,-10.502 10.401,-9.954 10.4,-9.435 10.4,-8.94 10.401,-8.469 10.4,-8.018 10.4,-7.586 10.4,-7.171 10.401,-6.773 10.4,-6.389 10.4,-6.017 10.401,-5.659 10.4,-5.312 10.4,-4.974 10.401,-4.646 10.4,-4.326 10.4,-4.014 10.401,-3.71 10.4,-3.411 10.4,-3.118 10.401,-2.83 10.4,-2.548 10.4,-2.269 10.401,-1.993 10.4,-1.722 10.4,-1.452 10.4,-1.185 10.401,-0.92 10.4,-0.657 10.4,-0.393 10.401,-0.131 10.4,0.131 10.4,0.393 10.401,0.657 10.4,0.92 10.4,1.185 10.401,1.452 10.4,1.722 10.4,1.993 10.401,2.269 10.4,2.548 10.4,2.83 10.4,3.118 10.401,3.411 10.4,3.71 10.4,4.014 10.401,4.326 10.4,4.646 10.4,4.974 10.401,5.312 10.4,5.659 10.4,6.017 10.401,6.389 10.4,6.773 10.4,7.171 10.401,7.586 10.4,8.018 10.4,8.469 10.4,8.94 10.401,9.435 10.4,9.954 10.4,10.502 10.401,11.079 10.4,11.69 10.4,12.339 10.401,13.028 10.4,13.764 m -748.823,0 10.401,-15.652 10.4,-14.815 10.4,-14.031 10.401,-13.294 10.4,-12.599 10.4,-11.942 10.401,-11.319 10.4,-10.729 10.4,-10.167 10.401,-9.63 10.4,-9.117 10.4,-8.627 10.4,-8.155 10.401,-7.701 10.4,-7.265 10.4,-6.843 10.401,-6.436 10.4,-6.04 10.4,-5.656 10.401,-5.283 10.4,-4.92 10.4,-4.564 10.401,-4.219 10.4,-3.878 10.4,-3.546 10.401,-3.219 10.4,-2.897 10.4,-2.58 10.401,-2.267 10.4,-1.958 10.4,-1.651 10.4,-1.348 10.401,-1.046 10.4,-0.746 10.4,-0.447 10.401,-0.149 10.4,0.149 10.4,0.447 10.401,0.746 10.4,1.046 10.4,1.348 10.401,1.651 10.4,1.958 10.4,2.267 10.401,2.58 10.4,2.897 10.4,3.219 10.4,3.546 10.401,3.878 10.4,4.219 10.4,4.564 10.401,4.92 10.4,5.283 10.4,5.656 10.401,6.04 10.4,6.436 10.4,6.843 10.401,7.265 10.4,7.701 10.4,8.155 10.401,8.627 10.4,9.117 10.4,9.63 10.4,10.167 10.401,10.729 10.4,11.319 10.4,11.942 10.401,12.599 10.4,13.294 10.4,14.031 10.401,14.815 10.4,15.652"
           style="fill:none;stroke:#e63e32;stroke-width:1.66667;stroke-dasharray:10, 4.16667"
           id="path224" /></g><path
         stroke="none"
         fill="#e63e32"
         d="m 548.20921,312.5198 -0.10232,0.63412 z m 130.58273,82.82371 2.03375,1.58198 z m -7.57121,2.17059 0.7988,0.26377 z m -93.55522,144.31939 c -0.65548,-2.20481 -2.11534,-4.30784 -2.18979,-3.15454 -0.0745,1.1533 1.2365,5.56293 1.96644,6.61444 0.72993,1.05151 0.87883,-1.25508 0.22335,-3.4599 m -18.00971,-13.8648 c 1.35896,3.22895 2.18654,3.63782 1.55177,1.30878 -0.63478,-2.32904 -2.73191,-7.39597 -4.09087,-10.62493 -1.35896,-3.22895 -1.97975,-4.61993 -1.34498,-2.29089 0.63478,2.32904 2.52512,8.37809 3.88408,11.60704 m 8.70014,-24.98794 c 0.0544,0.79157 3.23184,0.83009 4.7662,0.0578 1.53436,-0.77232 1.42562,-2.35546 -0.16311,-2.37472 -1.58873,-0.0193 -4.65746,1.52537 -4.60309,2.31694 m 84.42714,-106.09762 c 2.47069,-0.22588 0.42381,-4.40998 -2.82568,-9.17298 -3.24949,-4.76299 -7.70157,-10.10487 -11.67916,-12.85253 -3.97759,-2.74765 -7.48068,-2.90108 -7.9301,-1.43653 -0.44942,1.46455 2.15484,4.54709 3.66173,7.52064 1.5069,2.97354 1.91643,5.8381 5.61534,9.13653 3.6989,3.29844 10.68718,7.03076 13.15787,6.80487 m 150.84899,100.9458 c -1.3554,-0.77604 -2.84795,-1.63059 -4.98156,-2.71647 -2.13361,-1.08588 -4.90827,-2.40309 -7.65577,-3.57544 -2.74749,-1.17236 -5.4678,-2.19987 -8.1633,-3.0924 -2.69549,-0.89254 -5.36616,-1.65011 -8.01431,-2.2817 -2.64816,-0.63158 -5.27381,-1.13719 -6.8722,-0.57902 -1.5984,0.55817 -2.16953,2.18011 -4.75235,2.78621 -2.58281,0.6061 -7.1773,0.19634 -10.53133,-1.0501 -3.35404,-1.24644 -5.46762,-3.32957 -7.61083,-5.54518 -2.1432,-2.21562 -4.31602,-4.56372 -6.02982,-7.51391 -1.71381,-2.95019 -2.96859,-6.50245 -4.67743,-8.31186 -1.70884,-1.80942 -3.87174,-1.87597 -6.89416,-3.56011 -3.02242,-1.68414 -6.90437,-4.98587 -10.18438,-7.6792 -3.28,-2.69334 -5.95806,-4.77829 -10.5306,-6.96499 -4.57253,-2.18669 -11.03955,-4.47513 -17.22817,-6.86845 -6.18861,-2.39332 -12.09883,-4.89153 -21.1521,-9.90659 -9.05327,-5.01506 -21.2496,-12.54698 -27.752,-16.45299 -6.5024,-3.90601 -7.31086,-4.18612 -7.37897,-3.56302 -0.0681,0.6231 0.60413,2.14939 2.58702,5.1173 1.9829,2.96791 5.27646,7.37744 7.2057,9.7154 1.92925,2.33797 2.49417,2.60437 3.02214,2.9728 0.52798,0.36843 1.01899,0.83889 2.75115,1.13627 1.73216,0.29739 4.70546,0.4217 7.69867,0.61806 2.9932,0.19636 6.00631,0.46477 7.78515,0.7931 1.77885,0.32834 2.32343,0.7166 2.66801,1.20052 0.34458,0.48393 0.48916,1.06352 2.9247,3.20928 2.43555,2.14577 7.16207,5.85771 8.17214,8.61694 1.01007,2.75923 -1.69631,4.56575 -4.70711,5.57296 -3.0108,1.00722 -6.32601,1.21513 -9.61927,1.51261 -3.29327,0.29749 -6.56458,0.68453 -9.80762,1.03594 -3.24305,0.35141 -6.45782,0.66718 -9.65711,1.05083 -3.19929,0.38365 -6.3831,0.83518 -11.11577,1.7006 -4.73268,0.86542 -11.01422,2.14473 -14.95708,0.64569 -3.94285,-1.49904 -5.54703,-5.77642 -8.93652,-11.87279 -3.38949,-6.09637 -8.56431,-14.01173 -14.00027,-21.97347 -5.43597,-7.96173 -11.13308,-15.96984 -13.97734,-20.08222 -2.84426,-4.11238 -2.83567,-4.32904 -2.87912,-4.41112 -0.0434,-0.0821 -0.13891,-0.0296 -1.13944,0.62289 -1.00054,0.65247 -2.90613,1.90492 -1.52157,6.21781 1.38456,4.31289 6.05929,11.68622 9.58779,17.77481 3.5285,6.08858 5.91078,10.89242 10.23318,16.63351 4.32241,5.74109 10.58494,12.41942 13.80152,16.43259 3.21658,4.01316 3.38721,5.36114 4.18913,6.67023 0.80192,1.30908 2.23512,2.57926 5.37909,3.10747 3.14396,0.52821 7.9987,0.31445 12.86496,0.18466 4.86626,-0.12979 9.74406,-0.1756 11.0129,1.49748 1.26883,1.67309 -1.07128,5.06507 -3.38999,8.57877 -2.31872,3.5137 -4.61604,7.14911 -7.99097,10.54198 -3.37492,3.39288 -7.82745,6.5432 -12.27422,9.83605 -4.44676,3.29284 -8.88777,6.72821 -12.73382,10.20137 -3.84606,3.47316 -7.09717,6.9841 -7.85863,12.00314 -0.76146,5.01904 0.96673,11.54617 1.42806,18.19087 0.46134,6.6447 -0.34419,13.40698 -4.29182,19.24245 -3.94763,5.83547 -11.03735,10.74413 -14.33045,15.79447 -3.29309,5.05034 -2.78955,10.24235 -4.07244,14.35006 -1.28288,4.1077 -4.3522,7.1311 -7.82664,10.83833 -3.47445,3.70722 -7.35404,8.09828 -11.37005,12.45351 -4.01602,4.35523 -8.16846,8.67464 -12.70369,11.62185 -4.53522,2.94722 -9.45322,4.52226 -14.40894,5.99544 -4.95572,1.47319 -9.94917,2.84452 -13.68804,1.94975 -3.73886,-0.89478 -6.22315,-4.05565 -8.62659,-7.33583 -2.40343,-3.28017 -4.72602,-6.67964 -6.7602,-9.99751 -2.03419,-3.31788 -3.77998,-6.55415 -5.48523,-9.85972 -1.70524,-3.30557 -3.36994,-6.68043 -5.77034,-11.91894 -2.40039,-5.2385 -5.53648,-12.34065 -5.80539,-19.23957 -0.2689,-6.89892 2.32937,-13.59462 3.31239,-21.22587 0.98301,-7.63126 0.35077,-16.19808 -0.64023,-20.53762 -0.99099,-4.33955 -2.34075,-4.45182 -3.15494,-5.01187 -0.8142,-0.56005 -1.09284,-1.56788 -1.85312,-2.80348 -0.76028,-1.23559 -2.0022,-2.69896 -3.53121,-6.80925 -1.52901,-4.11028 -3.34511,-10.86749 -4.25315,-14.24609 -0.90805,-3.3786 -0.90805,-3.3786 -0.91138,-4.30054 -0.003,-0.92194 -0.01,-2.76581 -0.84909,-5.39013 -0.83909,-2.62432 -2.51064,-6.02909 -7.43049,-8.82491 -4.91986,-2.79582 -13.08802,-4.98269 -17.92384,-5.97181 -4.83582,-0.98911 -6.33929,-0.78047 -7.39211,-0.59851 -1.05283,0.18195 -1.655,0.33722 -4.74967,1.07363 -3.09468,0.73642 -8.68185,2.05398 -14.73211,3.27746 -6.05025,1.22348 -12.56357,2.35287 -18.54894,1.19352 -5.98537,-1.15935 -11.44279,-4.60745 -15.43681,-7.74013 -3.99402,-3.13268 -6.52464,-5.94995 -8.98244,-8.61221 -2.4578,-2.66225 -4.84279,-5.1695 -7.21915,-7.28155 -2.37636,-2.11204 -4.7441,-3.82889 -5.94545,-5.16781 -1.20135,-1.33893 -1.23632,-2.29994 -1.1205,-3.12861 0.11582,-0.82867 0.38241,-1.525 0.52892,-3.3222 0.14651,-1.7972 0.17293,-4.69527 -0.10263,-9.65146 -0.27556,-4.95619 -0.8531,-11.9705 0.20276,-17.63365 1.05587,-5.66314 3.74515,-9.97511 6.50741,-14.23443 2.76227,-4.25931 5.59752,-8.46596 9.31698,-12.04177 3.71945,-3.57581 8.32311,-6.52078 11.88226,-9.73041 3.55916,-3.20963 6.0738,-6.68392 8.67198,-10.08786 2.59817,-3.40394 5.27987,-6.73751 9.17591,-8.06653 3.89603,-1.32903 9.0064,-0.65351 13.82701,-1.11062 4.82061,-0.45711 9.35145,-2.04685 14.22923,-2.94758 4.87779,-0.90073 10.10252,-1.11243 15.34271,-1.18696 5.2402,-0.0745 10.49585,-0.0119 14.99866,0.11769 4.50281,0.12956 8.25279,0.32605 10.26532,2.572 2.01253,2.24594 2.28762,6.54136 5.0844,9.71829 2.79678,3.17693 8.11527,5.23539 13.35127,7.40523 5.23601,2.16983 10.38953,4.45105 14.73563,4.30814 4.34609,-0.1429 7.88475,-2.70993 12.1101,-2.92369 4.22535,-0.21376 9.1374,1.92575 14.73639,3.58751 5.59899,1.66175 11.88491,2.84575 18.15934,4.20387 6.27443,1.35812 12.53735,2.89035 15.8636,3.55961 3.32625,0.66925 3.71583,0.47551 4.34329,-0.29376 0.62746,-0.76928 1.49281,-2.1141 2.525,-3.4211 1.0322,-1.307 2.23123,-2.57618 2.79013,-3.84204 0.55889,-1.26586 0.47764,-2.5284 -2.40609,-4.07003 -2.88373,-1.54163 -8.56994,-3.36235 -14.28328,-5.03726 -5.71335,-1.67492 -11.45383,-3.20403 -14.97274,-5.97668 -3.51891,-2.77265 -4.81624,-6.78883 -3.20893,-8.70465 1.60731,-1.91581 6.11926,-1.73126 10.68768,-1.40202 4.56842,0.32924 9.19331,0.80315 14.35842,1.94768 5.1651,1.14453 10.87043,2.95967 16.55336,4.93143 5.68294,1.97177 11.34347,4.10015 13.10959,4.00751 1.76612,-0.0926 -0.36218,-2.40632 -3.83478,-5.07543 -3.4726,-2.6691 -8.28949,-5.69364 -9.51627,-7.63825 -1.22677,-1.94461 1.13658,-2.80929 0.80583,-3.19505 -0.33074,-0.38577 -3.35558,-0.29261 -6.30843,-0.0937 -2.95285,0.19886 -5.83371,0.50343 -10.25475,-0.52171 -4.42105,-1.02513 -10.38227,-3.37999 -14.11215,-4.07607 -3.72988,-0.69608 -5.22843,0.2666 -6.36709,1.48244 -1.13866,1.21584 -1.91744,2.68483 -3.6747,3.72019 -1.75725,1.03537 -4.49298,1.6371 -8.26862,1.82494 -3.77564,0.18784 -8.5912,-0.0382 -11.48244,1.48606 -2.89123,1.52427 -3.85814,4.79887 -5.64106,4.69346 -1.78293,-0.10541 -4.38188,-3.59082 -6.12147,-6.48895 -1.73959,-2.89812 -2.61983,-5.20895 -3.66223,-6.73402 -1.0424,-1.52507 -2.24697,-2.26438 -3.43382,-2.95239 -1.18685,-0.68801 -2.35598,-1.32472 -2.99094,-1.67535 -0.63495,-0.35062 -0.73573,-0.41516 -3.55338,-2.03444 -2.81765,-1.61927 -8.35219,-4.79327 -11.03928,-6.42083 -2.6871,-1.62757 -2.52676,-1.7087 -3.37314,-1.20156 -0.84638,0.50715 -2.69948,1.60257 -1.87409,3.26707 0.82539,1.6645 4.32926,3.89808 7.73048,6.19348 3.40122,2.2954 6.69978,4.65262 7.19526,5.88634 0.49548,1.23372 -1.81211,1.34395 -5.69463,0.12234 -3.88251,-1.22161 -9.33994,-3.77507 -14.9616,-6.17167 -5.62165,-2.39661 -11.40753,-4.63637 -14.34542,-5.73463 -2.93789,-1.09826 -3.0278,-1.05502 -3.22775,-0.99828 -0.19995,0.0567 -0.50994,0.12698 -3.46119,0.66434 -2.95125,0.53737 -8.54376,1.54186 -13.25579,3.49064 -4.71203,1.94878 -8.54358,4.84186 -12.22367,7.86722 -3.6801,3.02535 -7.20874,6.18299 -10.80069,7.66312 -3.59196,1.48013 -7.24722,1.28276 -10.91348,1.15319 -3.66627,-0.12957 -7.34353,-0.19133 -10.10875,-2.7011 -2.76522,-2.50977 -4.61839,-7.46754 -4.94179,-10.89161 -0.32341,-3.42406 0.88297,-5.31441 3.60292,-6.29389 2.71994,-0.97947 6.95346,-1.04807 11.17376,-1.02316 4.22029,0.0249 8.42735,0.14332 11.00466,-1.21567 2.57732,-1.35899 3.5249,-4.19538 1.4583,-6.59623 -2.06659,-2.40086 -7.14735,-4.36618 -7.22612,-6.02755 -0.0788,-1.66137 4.84447,-3.01877 9.9035,-4.22977 5.05902,-1.21099 10.25383,-2.27558 13.80878,-2.93696 3.55494,-0.66138 5.47002,-0.91956 8.70992,-1.68954 3.2399,-0.76999 7.80462,-2.05178 11.10359,-3.28403 3.29898,-1.23225 5.33221,-2.41495 6.88734,-2.92579 1.55513,-0.51083 2.63217,-0.3498 6.5158,0.36846 3.88364,0.71826 10.57386,1.99375 17.41864,3.02387 6.84478,1.03011 13.84412,1.81485 18.5412,2.16924 4.69709,0.35438 7.09193,0.27842 8.30108,-0.0452 1.20915,-0.32361 1.23261,-0.89487 3.49965,-1.31342 2.26705,-0.41856 6.77768,-0.68441 11.60735,-0.66908 4.82967,0.0153 9.97837,0.31182 12.4063,0.0762 2.42793,-0.23563 2.13508,-1.00341 -1.17359,-2.02269 -3.30867,-1.01928 -9.63315,-2.29006 -14.19621,-4.17521 -4.56306,-1.88514 -7.36469,-4.38466 -7.80238,-5.84646 -0.43768,-1.4618 1.48858,-1.8859 3.52452,-2.23367 2.03594,-0.34778 4.18155,-0.61924 2.79829,-0.85544 -1.38327,-0.23621 -6.29542,-0.43716 -10.90931,-0.41621 -4.6139,0.021 -8.92955,0.26382 -10.02421,1.37557 -1.09466,1.11175 1.03167,3.09239 -0.0245,4.47216 -1.05614,1.37978 -5.29475,2.1587 -9.2895,3.12324 -3.99474,0.96454 -7.74561,2.11469 -10.22846,1.92223 -2.48284,-0.19247 -3.69766,-1.72754 -4.97553,-3.23186 -1.27786,-1.50432 -2.61877,-2.97788 -5.36235,-3.89118 -2.74358,-0.9133 -6.88983,-1.26632 -11.02191,-1.53132 -4.13209,-0.26499 -8.25001,-0.44194 -9.67505,-1.16321 -1.42503,-0.72126 -0.15718,-1.98682 1.19122,-3.19762 1.3484,-1.2108 2.77735,-2.36683 5.02262,-3.40391 2.24528,-1.03709 5.30689,-1.95522 8.60101,-2.7512 3.29412,-0.79598 6.82075,-1.4698 10.6348,-1.98972 3.81405,-0.51991 7.91551,-0.88592 12.37433,-1.0511 4.45883,-0.16518 9.27501,-0.12954 14.7739,0.47397 5.49889,0.60351 11.68048,1.77488 18.03334,3.19489 6.35286,1.42001 12.87698,3.08866 18.27039,4.92379 5.39341,1.83512 9.6561,3.83671 13.67674,5.63137 4.02064,1.79466 7.79923,3.38239 11.49424,5.00639 3.69501,1.624 7.30645,3.28428 12.47249,5.85177 5.16603,2.56749 11.88668,6.04221 14.51176,7.79579 2.62507,1.75358 1.15457,1.78603 -1.7968,0.75766 -2.95138,-1.02838 -7.38362,-3.11759 -11.87167,-5.12591 -4.48804,-2.00832 -9.03187,-3.93576 -10.40939,-4.01356 -1.37752,-0.0778 0.41127,1.69404 4.11112,3.41323 3.69985,1.71919 9.31076,3.38573 15.20282,5.40372 5.89206,2.01799 12.06527,4.38744 16.80456,6.317 4.73928,1.92956 8.04463,3.41923 11.42359,5.02252 3.37896,1.6033 6.83152,3.32022 10.35704,5.16013 3.52552,1.83991 7.12399,3.80281 10.79361,5.89815 3.66962,2.09533 7.41039,4.3231 11.76806,7.06123 4.35768,2.73813 9.33227,5.98663 14.41681,9.49246 5.08455,3.50583 10.27904,7.26899 15.56232,11.43762 5.28328,4.16863 10.65534,8.74272 15.84743,13.33679 5.19208,4.59407 10.2042,9.20811 11.78697,10.3317 1.58277,1.12358 -0.26381,-1.2433 0.33523,-1.12931 0.59904,0.114 3.64368,2.70885 6.88648,5.59941 3.24279,2.89056 6.68374,6.07681 10.26865,10.11011 3.5849,4.03329 7.31378,8.91363 9.14444,10.91504 1.83066,2.00141 1.76311,1.12389 3.48267,2.671 1.71955,1.54711 5.22622,5.51885 8.29577,8.93358 3.06955,3.41472 5.70199,6.27243 8.51643,9.44232 2.81444,3.1699 5.81087,6.65198 9.35174,10.98887 3.54088,4.33689 7.62621,9.5286 11.75237,14.95518 4.12616,5.42658 8.29314,11.08804 12.07261,16.36217 3.77947,5.27414 7.17142,10.16094 9.4018,13.41014 2.23037,3.24919 3.29916,4.86077 3.83356,5.66656 C 807.424,500 807.424,500 807.424,500 c 0,0 0,0 0,0 0,0 0,0 0,0 0,0 0,0 0,0 0,0 0,0 0,0 0,0 0,0 0,0 0,0 0,0 0,0 0,0 0,0 0,0 0,0 0,0 0,0 0,0 0,0 0,0 0,0 0,0 -0.60913,-0.34876 -0.60913,-0.34876 -1.82739,-1.04628 -3.1828,-1.82231 m -704.120871,-37.02072 -5.15541,4.58789 z m 13.668791,-12.63913 -4.53056,4.12166 z m -42.14712,38.11023 c 3.529659,-3.7586 7.008051,-7.30556 7.008051,-7.30556 0,0 -3.478392,3.54696 -7.008051,7.30556 -3.529659,3.7586 -7.110584,7.72885 -7.110584,7.72885 0,0 3.580925,-3.97025 7.110584,-7.72885 m 74.31498,44.30779 -0.45926,-0.75776 z M 90.132356,468.33356 c 2.325047,-2.19362 4.632191,-4.91172 3.460717,-4.07714 -1.171474,0.83457 -5.821567,5.22181 -6.975139,6.58086 -1.153572,1.35905 1.189376,-0.3101 3.514422,-2.50372 m -18.584612,13.58335 c 3.244774,-4.54614 4.883534,-6.86994 7.193589,-9.91912 2.310056,-3.04918 5.291406,-6.82374 8.121841,-10.2961 2.830434,-3.47235 5.509954,-6.64251 3.610328,-4.09446 -1.899626,2.54805 -8.378398,10.8143 -14.453606,18.83279 -6.075208,8.0185 -11.746853,15.78924 -14.582675,19.67461 C 58.601399,500 58.601399,500 58.601399,500 c 0,0 0,0 2.425393,-3.38424 2.425393,-3.38424 7.276179,-10.15271 10.520952,-14.69885 m 3.420349,-2.00386 c 5.371923,-6.36506 10.618384,-12.23423 14.14978,-15.96415 3.531397,-3.72992 5.347731,-5.32059 7.084671,-6.74956 1.736941,-1.42896 3.394488,-2.69622 4.210456,-3.68049 0.81596,-0.98428 0.79035,-1.68557 2.93174,-4.35053 2.1414,-2.66496 6.44981,-7.29358 7.2765,-8.55519 0.82669,-1.26161 -1.82835,0.84379 -2.40533,0.72081 -0.57698,-0.12299 0.92411,-2.47435 4.32334,-6.34016 3.39923,-3.86581 8.69661,-9.24607 13.79944,-13.93928 5.10283,-4.69322 10.01111,-8.69939 14.61573,-12.16667 4.60462,-3.46727 8.90557,-6.39565 13.10701,-9.91026 4.20144,-3.51462 8.30337,-7.61547 11.66576,-10.19839 3.36239,-2.58292 5.98525,-3.6479 8.44719,-4.47739 2.46193,-0.82949 4.76294,-1.42349 7.59536,-2.53928 2.83242,-1.11579 6.19625,-2.75338 9.4611,-4.21853 3.26485,-1.46515 6.43072,-2.75787 5.22971,-0.88247 -1.201,1.87539 -6.76888,6.91889 -11.83751,10.92568 -5.06862,4.00679 -9.63799,6.97687 -14.2043,10.07859 -4.5663,3.10172 -9.12954,6.33507 -10.72688,7.93513 -1.59733,1.60007 -0.22878,1.56683 1.08794,1.62815 1.31671,0.0613 2.58158,0.21716 1.36831,1.79087 -1.21327,1.57371 -4.90467,4.56527 -11.23931,10.13731 -6.33464,5.57204 -15.31253,13.72457 -21.47581,20.05094 -6.16328,6.32638 -9.51196,10.8266 -14.83907,16.15729 -5.32712,5.33069 -12.63268,11.49184 -16.114316,15.32592 -3.481639,3.83409 -3.13936,5.34112 -3.96339,6.3559 -0.82403,1.01479 -2.814369,1.53734 -4.851097,2.22168 -2.036728,0.68434 -4.119846,1.53048 -7.236163,3.44054 -3.116318,1.91005 -7.265836,4.88403 -11.409295,7.9431 -4.143459,3.05907 -8.28086,6.20323 -10.34956,7.77531 C 58.601399,500 58.601399,500 58.601399,500 c 0,0 0,0 0,0 0,0 0,0 0,0 0,0 0,0 0,0 0,0 0,0 0,0 0,0 0,0 2.748693,-3.43047 2.748693,-3.43048 8.246078,-10.29142 13.618001,-16.65648 m -6.246044,14.56879 c 1.323238,-0.64146 -0.428994,0.51397 -1.722907,1.35043 -1.293913,0.83647 -2.129508,1.35396 -2.219224,1.48049 -0.08972,0.12652 0.566446,-0.13793 4.424041,-1.55211 3.857596,-1.41418 10.916625,-3.97808 14.089815,-4.68752 3.173191,-0.70944 2.460542,0.43558 2.846634,0.99099 0.386092,0.5554 1.870925,0.52119 6.218834,-0.0649 4.347909,-0.58611 11.558898,-1.72411 17.249848,-3.05557 5.69095,-1.33145 9.86187,-2.85636 14.05391,-4.47794 4.19203,-1.62158 8.40517,-3.33982 12.48714,-4.36023 4.08197,-1.0204 8.03275,-1.34296 11.97281,-1.57817 3.94005,-0.23522 7.86937,-0.38308 11.78849,-0.44843 3.91913,-0.0653 7.82806,-0.0482 11.72743,0.0467 3.89937,0.0948 7.78918,0.26735 11.65698,1.48544 3.86779,1.21808 7.71357,3.48174 11.76971,4.52649 4.05613,1.04475 8.32262,0.87058 12.18076,1.31644 3.85813,0.44585 7.30792,1.51172 9.92593,4.07628 2.618,2.56456 4.40423,6.62781 9.47621,10.02153 5.07199,3.39372 13.42974,6.11791 20.64715,7.72377 7.2174,1.60586 13.29447,2.09338 19.43585,3.78789 6.14139,1.69451 12.3471,4.59602 15.59243,8.47565 3.24533,3.87964 3.53028,8.7374 1.08328,13.36059 -2.44699,4.62318 -7.62593,9.01178 -10.67995,14.51004 -3.05402,5.49826 -3.98312,12.10617 -6.07597,16.99423 -2.09284,4.88805 -5.34943,8.05625 -9.21199,9.90266 -3.86256,1.84641 -8.3311,2.37103 -12.85199,2.73417 -4.52088,0.36314 -9.0941,0.56479 -11.5449,1.87858 -2.45081,1.31379 -2.77921,3.73972 -4.48265,5.5952 -1.70344,1.85548 -4.78192,3.14051 -7.94622,4.2383 -3.1643,1.09778 -6.41442,2.00833 -8.03948,2.4636 -1.62506,0.45527 -1.62506,0.45527 -4.72869,-0.55635 -3.10363,-1.01162 -9.3109,-3.03486 -12.65357,-4.88972 -3.34268,-1.85485 -3.82075,-3.54132 -2.99532,-2.30966 0.82543,1.23165 2.95437,5.38143 2.65046,7.16856 -0.3039,1.78712 -3.04065,1.21159 -5.81504,0.54047 -2.77439,-0.67113 -5.58642,-1.43787 -8.43711,-2.30584 -2.8507,-0.86797 -5.74005,-1.83718 -8.66891,-2.91355 -2.92885,-1.07637 -5.89721,-2.2599 -6.5007,-1.75191 -0.60349,0.50799 1.15788,2.70751 0.69167,3.42814 -0.46622,0.72063 -3.16001,-0.0376 -5.93495,-0.96437 -2.77494,-0.92676 -5.63103,-2.02202 -5.91225,-1.32633 -0.28122,0.69569 2.01243,3.18233 2.33823,4.33087 0.32581,1.14853 -1.31623,0.95895 -3.03574,0.63152 -1.71952,-0.32743 -3.51651,-0.79272 -6.3206,-2.51322 -2.80409,-1.7205 -6.61528,-4.6962 -10.44556,-7.80317 -3.83027,-3.10697 -7.67963,-6.3452 -10.61526,-9.71485 -2.93562,-3.36964 -4.9575,-6.87068 -4.8927,-8.20272 0.0648,-1.33203 2.21628,-0.49505 4.27429,0.14349 2.05802,0.63855 4.02256,1.07866 4.16898,-0.16553 0.14641,-1.24419 -1.5253,-4.17268 -1.55356,-5.69303 -0.0283,-1.52035 1.58693,-1.63255 3.15088,-1.87462 1.56394,-0.24207 3.07662,-0.614 4.20638,-2.41723 1.12975,-1.80323 1.87657,-5.03777 2.58224,-8.48291 0.70567,-3.44514 1.37019,-7.10089 -1.62202,-10.74753 -2.9922,-3.64664 -9.64114,-7.28416 -15.04668,-10.64362 -5.40555,-3.35946 -9.56771,-6.44085 -12.66386,-8.61838 -3.09616,-2.17753 -5.12631,-3.4512 -7.14433,-4.63007 -2.018031,-1.17886 -4.023938,-2.26293 -4.499437,-3.17506 -0.475499,-0.91212 0.579409,-1.65232 2.155246,-2.8538 1.575841,-1.20148 3.672601,-2.86426 5.967021,-4.26677 2.29443,-1.4025 4.78651,-2.54473 5.4333,-3.73329 0.64679,-1.18857 -0.55171,-2.42345 -4.61897,-2.58316 -4.06726,-0.15971 -11.003282,0.75576 -15.439061,1.24446 -4.435779,0.4887 -6.371312,0.55063 -8.315551,0.69327 -1.944239,0.14264 -3.897184,0.36598 -5.991552,0.69803 -2.094367,0.33204 -4.330158,0.77278 -5.796902,1.09304 -1.466745,0.32026 -2.164444,0.52004 -4.026769,1.15804 -1.862325,0.63799 -4.889275,1.7142 -6.402751,2.25231 C 58.601399,500 58.601399,500 58.601399,500 c 0,0 0,0 2.199353,-1.21917 2.199353,-1.21918 6.59806,-3.65752 7.921297,-4.29899 M 700.14373,375.03347 c -3.99847,-3.41884 -7.89122,-6.62498 -11.55104,-9.46667 -3.65981,-2.84169 -7.08669,-5.31892 -10.29426,-7.53737 -3.20758,-2.21845 -6.19585,-4.1781 -9.0021,-5.93305 -2.80624,-1.75496 -5.43044,-3.3052 -7.90264,-4.69069 -2.4722,-1.38548 -4.79239,-2.60621 -5.64519,-3.4379 -0.85281,-0.83169 -0.23822,-1.27434 1.7818,-0.43036 2.02002,0.84397 5.44547,2.97458 9.12017,5.39298 3.6747,2.4184 7.59865,5.1246 12.3851,8.756 4.78645,3.6314 10.43542,8.188 16.13166,13.0137 5.69625,4.82569 11.43979,9.92047 12.25947,10.6521 0.81968,0.73162 -3.2845,-2.89991 -7.28297,-6.31874 m -43.94192,-37.03226 c 5.4889,3.7492 9.18373,6.43603 12.88627,9.21561 3.70253,2.77958 7.41276,5.6519 7.40249,5.70207 -0.0103,0.0502 -3.74104,-2.72183 -7.1929,-5.19746 -3.45185,-2.47563 -6.6248,-4.65489 -10.01614,-7.0495 -3.39133,-2.39462 -7.00105,-5.00459 -10.8932,-7.71433 -3.89216,-2.70974 -8.06676,-5.51925 -6.51257,-4.51822 1.55418,1.00104 8.83714,5.81262 14.32605,9.56183 m -508.76216,252.47027 0.0368,-0.83341 z M 76.126717,524.80994 c 5.82866,8.01766 11.637651,15.65682 17.559008,23.10402 5.921357,7.4472 11.955085,14.70243 16.729205,20.27218 4.77412,5.56975 8.28864,9.45402 11.75865,13.18303 3.47001,3.729 6.8955,7.30274 11.8855,12.23045 4.98999,4.92772 11.54449,11.20941 15.02476,14.24623 3.48027,3.03681 3.88632,2.82876 4.24572,2.53181 0.3594,-0.29696 0.67215,-0.68281 2.55311,0.37671 1.88096,1.05952 5.33013,3.56441 8.57975,5.78196 3.24962,2.21755 6.2997,4.14777 9.67908,6.42108 3.37938,2.27331 7.08807,4.88972 10.7303,7.35669 3.64223,2.46698 7.21801,4.78453 6.51644,4.51153 -0.70157,-0.27301 -5.68049,-3.13657 -9.55193,-5.48535 -3.87143,-2.34878 -6.63539,-4.18279 -9.5019,-6.17594 -2.8665,-1.99314 -5.83555,-4.14543 -5.87289,-3.60555 -0.0373,0.53988 2.85705,3.77192 6.23608,7.31435 3.37904,3.54243 7.24273,7.39524 6.91599,7.74531 -0.32675,0.35008 -4.84394,-2.80257 -9.50771,-6.42272 -4.66378,-3.62015 -9.47414,-7.70779 -14.62828,-12.33412 -5.15413,-4.62633 -10.65204,-9.79134 -16.54374,-15.65584 -5.89169,-5.8645 -12.17719,-12.42848 -17.05383,-17.67791 -4.87664,-5.24943 -8.34442,-9.1843 -11.92722,-13.37854 -3.58279,-4.19424 -7.28058,-8.64785 -5.96075,-7.02842 1.31984,1.61944 7.6573,9.31191 12.54623,15.07313 4.88894,5.76122 8.32933,9.59118 11.84416,13.39962 3.51484,3.80844 7.1041,7.59535 10.76518,11.35024 3.66107,3.75489 7.39395,7.47775 11.19455,11.15759 3.8006,3.67985 7.66891,7.31669 11.90697,11.25086 4.23806,3.93418 8.84586,8.16569 13.06915,11.85366 4.22329,3.68797 8.06207,6.83241 11.83291,9.82862 3.77085,2.99621 7.47375,5.84419 12.81002,9.71323 5.33626,3.86904 12.30588,8.75912 18.97432,13.18217 6.66845,4.42304 13.03572,8.37904 19.10435,11.948 6.06863,3.56896 11.83862,6.75087 17.32448,9.61687 5.48586,2.86599 10.6876,5.41606 15.62663,7.71062 4.93904,2.29456 9.61537,4.33361 14.05354,6.16691 4.43817,1.8333 8.63817,3.46086 12.62505,4.92286 3.98687,1.462 7.76063,2.75844 7.25679,2.43743 -0.50384,-0.321 -5.28528,-2.25946 -9.78551,-4.18649 -4.50023,-1.92703 -8.71925,-3.84263 -9.07441,-4.25743 -0.35517,-0.4148 3.15353,0.6712 7.76749,2.22531 4.61396,1.55411 10.33319,3.57632 15.86196,5.37816 5.52878,1.80183 10.86711,3.38329 16.01321,4.77509 5.1461,1.3918 10.09997,2.59394 14.86582,3.63513 4.76586,1.0412 9.34369,1.92144 13.57636,2.57182 4.23268,0.65038 8.1202,1.07089 11.77878,1.373 3.65858,0.3021 7.08823,0.48581 10.32309,0.57647 3.23487,0.0907 6.27494,0.0883 9.14906,0.0115 2.87411,-0.0767 5.58226,-0.22784 10.27185,-0.002 4.68959,0.22562 11.36061,0.82794 18.07494,1.22522 6.71433,0.39727 13.47197,0.58949 20.02974,0.49254 6.55777,-0.0969 12.91567,-0.48305 19.11123,-1.03981 6.19556,-0.55675 12.22876,-1.28416 18.14464,-1.93186 5.91588,-0.6477 11.71443,-1.21568 17.5955,-1.96046 5.88106,-0.74477 11.84463,-1.66634 17.86344,-2.77212 6.01881,-1.10578 12.09285,-2.39577 18.19145,-3.87161 6.09859,-1.47584 12.22174,-3.13751 17.34399,-4.67831 5.12225,-1.54081 9.24359,-2.96074 13.30538,-4.44159 4.0618,-1.48085 8.06404,-3.02262 12.00077,-4.61714 3.93674,-1.59452 7.80796,-3.2418 11.60926,-4.93358 3.8013,-1.69177 7.53268,-3.42805 11.80708,-5.55255 4.2744,-2.12449 9.09182,-4.6372 13.74822,-7.18472 4.6564,-2.54753 9.15177,-5.12987 13.49126,-7.72961 4.3395,-2.59975 8.52312,-5.2169 12.55842,-7.83705 4.0353,-2.62016 7.92228,-5.24332 11.71283,-7.72797 3.79055,-2.48465 7.48467,-4.83078 11.1522,-7.2393 3.66753,-2.40851 7.30848,-4.8794 11.83399,-7.76714 4.5255,-2.88773 9.93556,-6.19231 16.11221,-10.57505 6.17664,-4.38273 13.11988,-9.84362 18.33752,-14.07619 5.21764,-4.23258 8.70969,-7.23683 12.2009,-10.32974 3.49121,-3.09292 6.98158,-6.27448 6.95496,-5.65577 -0.0266,0.6187 -3.57025,5.03769 -3.2527,5.14984 0.31754,0.11215 4.49626,-4.08253 8.39824,-8.10778 3.90198,-4.02524 7.52722,-7.88105 11.70452,-12.35348 4.17729,-4.47242 8.90663,-9.56145 13.4815,-14.6415 4.57487,-5.08005 8.99527,-10.15112 13.26574,-15.19108 4.27046,-5.03995 8.391,-10.04879 12.36845,-15.00823 3.97746,-4.95943 7.81184,-9.86946 11.47036,-14.64106 3.65851,-4.7716 7.14117,-9.40477 10.63417,-14.18769 3.493,-4.78293 6.99635,-9.7156 8.74803,-12.18194 C 807.424,500 807.424,500 807.424,500 c 0,0 0,0 0,0 0,0 0,0 0,0 0,0 0,0 0,0 0,0 0,0 0,0 0,0 0,0 0,0 0,0 0,0 0,0 0,0 0,0 -1.95005,2.9698 -1.95006,2.96981 -5.85018,8.90942 -9.7503,14.67133 -3.90012,5.76192 -7.80023,11.34614 -11.70035,16.76498 -3.90012,5.41884 -7.80024,10.6723 -11.70035,15.77132 -3.90012,5.09902 -7.80024,10.0436 -11.70036,14.84348 -3.90012,4.79988 -7.80023,9.45506 -11.70035,13.97425 -3.90012,4.5192 -7.80024,8.90241 -11.70035,13.15742 -3.90012,4.25502 -7.80024,8.38185 -11.70036,12.38748 -3.90012,4.00564 -7.80023,7.89009 -11.70035,11.65964 -3.90012,3.76955 -7.80024,7.42422 -11.70035,10.96966 -3.90012,3.54544 -7.80024,6.98165 -11.70036,10.31377 -3.90012,3.33212 -7.80023,6.56013 -11.70035,9.68867 -3.90012,3.12853 -7.80024,6.15759 -11.70035,9.09134 -3.90012,2.93376 -7.80024,5.77222 -11.70036,8.51916 -3.90011,2.74694 -7.80023,5.40237 -11.70035,7.96971 -3.90012,2.56733 -7.80024,5.04657 -11.70035,7.44082 -3.90012,2.39425 -7.80024,4.70351 -11.70036,6.93057 -3.90011,2.22706 -7.80023,4.37193 -11.70035,6.43714 -3.90012,2.06521 -7.80024,4.05076 -11.70035,5.95894 -3.90012,1.90817 -7.80024,3.73898 -11.70036,5.49446 -3.90011,1.75548 -7.80023,3.43565 -11.70035,5.04234 -3.90012,1.6067 -7.80023,3.13992 -11.70035,4.60133 -3.90012,1.4614 -7.80024,2.85099 -13.65041,4.72562 -5.85018,1.87462 -13.65042,4.23429 -21.45065,6.32216 -7.80024,2.08786 -15.60047,3.90392 -23.40071,5.45548 -7.80023,1.55157 -15.60047,2.83864 -23.40071,3.86631 -7.80023,1.02766 -15.60047,1.79592 -23.4007,2.30776 -7.80024,0.51185 -15.60047,0.76727 -23.40071,0.76727 -7.80023,0 -15.60047,-0.25543 -23.4007,-0.76727 -7.80024,-0.51184 -15.60048,-1.2801 -23.40071,-2.30776 -7.80024,-1.02767 -15.60047,-2.31474 -23.40071,-3.86631 -7.80023,-1.55157 -15.60047,-3.36762 -23.4007,-5.45548 -7.80024,-2.08787 -15.60047,-4.44754 -21.45065,-6.32217 -5.85018,-1.87462 -9.7503,-3.26421 -13.65041,-4.72561 -3.90012,-1.46141 -7.80024,-2.99463 -11.70036,-4.60133 -3.90011,-1.60669 -7.80023,-3.28686 -11.70035,-5.04234 -3.90012,-1.75549 -7.80024,-3.58629 -11.70035,-5.49446 -3.90012,-1.90818 -7.80024,-3.89373 -11.70036,-5.95894 -3.90011,-2.06521 -7.80023,-4.21008 -11.70035,-6.43714 -3.90012,-2.22707 -7.80024,-4.53632 -11.70035,-6.93057 -3.90012,-2.39425 -7.80024,-4.87349 -11.70036,-7.44083 -3.90011,-2.56733 -7.80023,-5.22276 -11.70035,-7.9697 -3.90012,-2.74694 -7.80023,-5.5854 -11.70035,-8.51916 -3.90012,-2.93376 -7.80024,-5.96281 -11.70036,-9.09135 -3.90011,-3.12853 -7.80023,-6.35654 -11.70035,-9.68866 -3.90012,-3.33212 -7.80023,-6.76834 -11.70035,-10.31378 -3.90012,-3.54544 -7.80024,-7.2001 -11.70036,-10.96965 -3.90011,-3.76956 -7.80023,-7.654 -11.70035,-11.65964 -3.90012,-4.00564 -7.80023,-8.13246 -11.70035,-12.38748 -3.90012,-4.25502 -7.80024,-8.63822 -11.70035,-13.15742 -3.90012,-4.51919 -7.80024,-9.17438 -11.70036,-13.97426 -3.90012,-4.79988 -7.800234,-9.74445 -11.700351,-14.84347 C 89.802341,545.07841 85.902223,539.82495 82.002105,534.40611 78.101988,528.98727 74.20187,523.40305 70.301752,517.64113 66.401634,511.87922 62.501517,505.93961 60.551458,502.9698 58.601399,500 58.601399,500 58.601399,500 c 0,0 0,0 0,0 0,0 0,0 0,0 0,0 0,0 0,0 0,0 0,0 0,0 0,0 0,0 0,0 0,0 0,0 0,0 0,0 0,0 0,0 0,0 0,0 0,0 0,0 0,0 2.924165,4.19807 2.924164,4.19807 8.772493,12.59422 14.601153,20.61187 M 178.93293,638.49738 c -2.55889,-2.08742 -6.87488,-5.78657 -11.06847,-9.49989 -4.19358,-3.71332 -8.26477,-7.44083 -7.92091,-7.18089 0.34385,0.25994 5.10274,4.50733 9.69722,8.45851 4.59449,3.95117 9.02458,7.60614 10.83872,9.19577 1.81414,1.58964 1.01234,1.11393 -1.54656,-0.9735 m 68.16806,46.47347 c -2.29335,-1.17643 -9.40163,-5.22611 -14.83341,-8.43881 -5.43177,-3.2127 -9.18704,-5.58842 -13.00329,-8.09153 -3.81625,-2.50312 -7.69347,-5.13363 -7.63296,-5.20214 0.0605,-0.0685 4.05876,2.42499 7.58743,4.50715 3.52867,2.08215 6.58776,3.75296 10.69823,6.18576 4.11047,2.4328 9.27232,5.6276 13.11404,8.0734 3.84171,2.4458 6.3633,4.14261 4.06996,2.96617 M 135.19351,594.09913 c -3.69849,-3.51986 -9.68492,-9.87345 -10.70388,-11.0875 -1.01896,-1.21406 2.92955,2.71141 6.62803,6.23127 3.69849,3.51986 7.14694,6.63412 8.1659,7.84817 1.01896,1.21406 -0.39157,0.52792 -4.09005,-2.99194 m -30.47048,-117.2426 c -5.328887,1.91138 -10.708599,4.11158 -11.901886,4.39651 -1.193287,0.28492 1.79985,-1.34543 5.23362,-2.809 3.433766,-1.46356 7.308176,-2.76035 11.140496,-3.85656 3.83232,-1.09621 7.62255,-1.99185 6.87864,-1.62838 -0.74392,0.36347 -6.02198,1.98604 -11.35087,3.89743 m 29.71759,-8.21399 0.0261,-0.91355 z m 271.13345,-161.63577 -1.35511,-0.68997 z m 19.03998,-6.29751 c 1.78373,1.3829 3.47855,2.81985 5.09767,4.30615 1.61912,1.4863 3.16254,3.02196 4.6411,4.60321 1.47856,1.58124 2.89226,3.20808 1.21985,4.21226 -1.6724,1.00417 -6.4309,1.38569 -11.14236,1.88327 -4.71146,0.49759 -9.37587,1.11123 -10.83262,0.52451 -1.45675,-0.58672 0.29416,-2.37382 2.12601,-4.11161 1.83184,-1.73778 3.74463,-3.42627 3.56839,-4.79192 -0.17623,-1.36564 -2.4415,-2.40844 -4.78995,-3.39842 -2.34845,-0.98997 -4.7801,-1.92712 -4.03014,-3.12965 0.74995,-1.20254 4.68151,-2.67048 7.5836,-2.74002 2.90209,-0.0695 4.77472,1.25932 6.55845,2.64222 M 311.41833,284.20915 c 4.03764,-1.38351 7.93451,-2.6397 13.38094,-4.21232 5.44643,-1.57263 12.44241,-3.46168 15.99773,-4.31943 3.55533,-0.85776 3.66998,-0.68421 6.4499,-1.19783 2.77991,-0.51362 8.22508,-1.71441 13.57518,-2.76812 5.35011,-1.05372 10.60516,-1.96036 11.21748,-2.01482 0.61232,-0.0545 -3.41809,0.74326 -7.25661,1.57139 -3.83853,0.82813 -7.48518,1.68667 -9.01263,2.23769 -1.52745,0.55101 -0.9357,0.79451 -0.41411,1.08191 0.5216,0.28741 0.97303,0.61873 0.3331,1.27005 -0.63994,0.65133 -2.37125,1.62267 -3.90969,2.59876 -1.53844,0.97609 -2.884,1.95692 -5.51253,2.95178 -2.62853,0.99485 -6.54003,2.00371 -10.4279,3.07787 -3.88788,1.07416 -7.75212,2.21361 -8.08524,2.49291 -0.33311,0.2793 2.8649,-0.30155 5.91618,-0.78549 3.05129,-0.48395 5.95584,-0.87099 5.23537,-0.43489 -0.72048,0.4361 -5.06597,1.69534 -9.34468,3.02368 -4.2787,1.32834 -8.49061,2.72579 -8.63642,2.91402 -0.14581,0.18822 3.77448,-0.83278 7.62206,-1.75666 3.84759,-0.92387 7.62247,-1.75062 6.01584,-0.97263 -1.60662,0.77799 -8.59477,3.1607 -15.26757,5.66588 -6.6728,2.50517 -13.03026,5.1328 -19.53754,8.06846 -6.50728,2.93565 -13.16439,6.17934 -19.44723,9.46999 -6.28285,3.29064 -12.19144,6.62826 -15.92817,9.28897 -3.73673,2.66072 -5.3016,4.64453 -6.7445,6.62241 -1.44291,1.97788 -2.76386,3.94982 -5.29757,5.68855 -2.53372,1.73873 -6.2802,3.24425 -10.09535,4.88266 -3.81514,1.6384 -7.69894,3.40969 -10.42537,4.37889 -2.72643,0.96919 -4.29551,1.13629 -5.94682,1.3964 -1.65132,0.26011 -3.38488,0.61323 -5.21489,1.07447 -1.83001,0.46125 -3.75647,1.03061 -5.79677,1.72755 -2.04031,0.69693 -4.19448,1.52143 -3.18968,0.11681 1.0048,-1.40462 5.16855,-5.03836 4.74381,-5.37245 -0.42474,-0.33409 -5.43798,2.63147 -9.48637,4.83174 -4.0484,2.20028 -7.13195,3.63526 -10.76536,5.64418 -3.63342,2.00893 -7.8167,4.59179 -12.87675,8.33568 -5.06005,3.74389 -10.99687,8.6488 -16.96989,13.84043 -5.97303,5.19162 -11.98225,10.66997 -16.29186,14.59731 -4.30961,3.92735 -6.91961,6.30369 -9.80235,9.04121 -2.88274,2.73753 -6.03823,5.83624 -4.19087,3.85694 1.84736,-1.97931 8.69757,-9.03663 14.25001,-14.57508 5.55244,-5.53846 9.80712,-9.55805 14.41767,-13.74868 4.61054,-4.19062 9.57696,-8.55227 15.27218,-13.29426 5.69522,-4.74199 12.11926,-9.86432 18.9789,-15.02004 6.85965,-5.15571 14.15491,-10.34481 20.37843,-14.56173 6.22352,-4.21692 11.37531,-7.46165 16.49229,-10.53854 5.11699,-3.07688 10.19918,-5.98592 16.38963,-9.34611 6.19045,-3.36018 13.48916,-7.17151 19.21522,-10.03725 5.72606,-2.86575 9.87947,-4.7859 14.21709,-6.69283 4.33761,-1.90692 8.85944,-3.80062 13.20956,-5.50287 4.35012,-1.70226 8.52852,-3.21306 12.56615,-4.59656 m 51.51985,7.15083 c -2.91058,1.07315 -8.51089,1.62208 -14.29494,2.39448 -5.78405,0.7724 -11.75184,1.76827 -11.84809,1.40911 -0.0962,-0.35916 5.67905,-2.07335 11.57353,-3.64444 5.89448,-1.57109 11.90814,-2.99908 14.80454,-2.91438 2.89641,0.0847 2.67555,1.68207 -0.23504,2.75523 M 639.9176,549.6946 c -1.54312,6.63541 -6.19866,16.83727 -10.67397,22.49518 -4.47532,5.65791 -8.77042,6.77189 -10.97738,3.46599 -2.20696,-3.3059 -2.32579,-11.03168 1.36487,-18.22408 3.69067,-7.19239 11.19084,-13.85141 15.72557,-15.64644 4.53473,-1.79502 6.10403,1.27394 4.56091,7.90935 M 515.93587,275.78875 c 1.32132,0.55828 -1.85015,0.12637 -4.76448,-0.19453 -2.91433,-0.32089 -5.57153,-0.53077 -8.75359,-1.18906 -3.18207,-0.6583 -6.889,-1.76501 -11.11955,-2.85347 -4.23054,-1.08846 -8.98469,-2.15867 -9.27494,-2.42129 -0.29024,-0.26262 3.88343,0.28235 8.12126,0.91747 4.23782,0.63513 8.5398,1.3604 13.59784,2.49727 5.05804,1.13687 10.87215,2.68533 12.19346,3.24361 M 207.20607,377.4198 c 1.91285,0.36103 3.73857,0.85867 2.43585,2.09136 -1.30272,1.23269 -5.73388,3.20043 -10.21126,5.33732 -4.47738,2.13689 -9.00097,4.44292 -8.69824,3.09803 0.30273,-1.3449 5.43178,-6.34073 8.9963,-8.72644 3.56452,-2.38571 5.5645,-2.16129 7.47735,-1.80027 M 77.989802,472.53879 c 3.487592,-4.61484 9.671073,-12.82218 13.487738,-17.75065 3.816664,-4.92848 5.266513,-6.57809 7.80753,-9.55993 2.54102,-2.98185 6.1732,-7.29592 9.83724,-11.52884 3.66403,-4.23293 7.35991,-8.3847 11.69647,-12.98228 4.33656,-4.59759 9.31379,-9.64098 14.05363,-14.235 4.73984,-4.59402 9.24229,-8.73867 13.92319,-12.74953 4.6809,-4.01085 9.54025,-7.88792 14.02635,-11.23426 4.4861,-3.34635 8.59894,-6.16197 8.74421,-5.9342 0.14526,0.22778 -3.67706,3.49895 -7.40802,6.78013 -3.73095,3.28117 -7.37056,6.57233 -8.17619,7.64141 -0.80563,1.06908 1.22272,-0.0839 3.12024,-1.05394 1.89753,-0.97001 3.66424,-1.75703 1.67105,0.0551 -1.99318,1.81217 -7.74627,6.22351 -12.15622,9.73628 -4.40995,3.51276 -7.47677,6.12695 -10.60816,8.89321 -3.13138,2.76625 -6.32734,5.68456 -7.78192,6.56529 -1.45459,0.88072 -1.1678,-0.27615 -3.07769,1.1946 -1.9099,1.47075 -6.01646,5.56912 -10.33702,10.09846 -4.32055,4.52934 -8.85509,9.48966 -14.39765,16.00086 -5.542565,6.51119 -12.093148,14.57327 -17.013886,20.79367 -4.920739,6.22039 -8.211633,10.59911 -11.501077,15.09276 -3.289444,4.49364 -6.577438,9.10222 -6.740665,9.26076 -0.163228,0.15854 2.798311,-4.13295 4.674932,-6.78986 1.876622,-2.65691 2.668325,-3.67924 6.155918,-8.29407 m -10.797597,14.90292 c 4.174794,-5.95075 10.316378,-14.54847 16.388724,-22.66015 6.072345,-8.11167 12.075452,-15.7373 13.594007,-17.6706 1.518555,-1.9333 -1.447442,1.82574 -5.752679,7.43545 -4.305237,5.60972 -9.949714,13.07011 -15.607452,20.90027 -5.657738,7.83016 -11.328737,16.0301 -14.199848,20.18394 -2.871111,4.15385 -2.942335,4.26162 -2.977946,4.3155 C 58.601399,500 58.601399,500 58.601399,500 c 0,0 0,0 1.104003,-1.65189 1.104002,-1.65188 3.312008,-4.95565 7.486803,-10.9064 m -2.373028,3.15858 c 0.377746,-0.57725 -1.786776,2.67948 -3.246784,4.88509 -1.460008,2.20562 -2.215501,3.36012 -2.593247,3.93737 C 58.601399,500 58.601399,500 58.601399,500 c 0,0 0,0 1.460008,-2.20562 1.460008,-2.20561 4.380023,-6.61684 4.75777,-7.19409 M 75.40163,475.35178 c 5.840705,-8.31007 12.04235,-16.76112 17.128217,-23.48538 5.085866,-6.72425 9.055953,-11.72171 13.082473,-16.63579 4.02653,-4.91408 8.10948,-9.74479 12.2403,-14.47979 4.13082,-4.735 8.30949,-9.3743 12.526,-13.90662 4.21652,-4.53231 8.47086,-8.95764 10.59803,-11.17031 2.12717,-2.21266 2.12717,-2.21266 5.21171,-5.14968 3.08454,-2.93701 9.25362,-8.81104 15.06055,-14.10144 5.80693,-5.29041 11.2517,-9.9972 11.44259,-10.11516 0.19089,-0.11796 -4.87211,4.3529 -9.57985,8.65809 -4.70775,4.30518 -9.06023,8.44468 -13.11738,12.41958 -4.05714,3.9749 -7.81895,7.78519 -11.33539,11.43872 -3.51645,3.65353 -6.78753,7.15031 -11.61037,12.61471 -4.82284,5.4644 -11.19744,12.89641 -17.48193,20.41113 -6.2845,7.51472 -12.478908,15.11213 -17.180681,21.03315 -4.701774,5.92103 -7.910915,10.16566 -11.152448,14.569 -3.241533,4.40333 -6.515457,8.96538 -7.488904,10.2753 -0.973447,1.30992 0.353582,-0.63229 -1.786863,2.53781 -2.140445,3.1701 -7.748365,11.4525 -10.552325,15.5937 C 58.601399,500 58.601399,500 58.601399,500 c 0,0 0,0 2.739882,-4.08454 2.739881,-4.08454 8.219645,-12.25361 14.060349,-20.56368"
         clip-path="url(#sphere"
         id="path228" /><text
         x="433.0127"
         y="800"
         text-anchor="middle"
         dominant-baseline="middle"
         font-size="111.111px"
         textLength="350"
         font-weight="bold"
         fill="#ffffff"
         style="font-family:Roboto"
         id="text213"
         lengthAdjust="spacing"
         transform="translate(1.5741817e-5,3.2625747e-5)">bertin</text></g></g></g>
</svg>
